<svg width="135.000000" height="38.000000" viewBox="0 0 135 38" fill="none" xmlns="http://www.w3.org/2000/svg" xmlns:xlink="http://www.w3.org/1999/xlink">
	<desc>
			Created with Pixso.
	</desc>
	<defs/>
	<rect id="bg" rx="19.000000" width="135.000000" height="38.000000" fill="#5222D0" fill-opacity="1.000000"/>
	<path id="Подписаться" d="M26.5 19.21C26.5 12.92 35.83 12.92 35.83 19.21C35.83 25.51 26.5 25.51 26.5 19.21ZM43.75 23.77L38.37 23.77L38.37 24.77L36.45 24.77L36.45 21.73L37.37 21.73L40.49 14.53L41.49 14.53L44.72 21.73L45.66 21.73L45.66 24.77L43.75 24.77L43.75 23.77ZM85.18 23.75L82.91 23.75L82.38 22.6L78.79 22.6L78.26 23.75L75.98 23.75L75.98 23.41L80.08 14.53L81.08 14.53L85.18 23.41L85.18 23.75ZM71.03 23.84C68.71 23.85 66.37 22.29 66.36 19.2C66.37 16.1 68.71 14.54 71.03 14.54C72.91 14.54 74.95 15.57 75.3 18L73.01 18C72.69 17.08 72 16.66 71.03 16.66C69.66 16.66 68.76 17.69 68.76 19.2C68.76 20.53 69.65 21.7 71.03 21.72C72.01 21.72 72.81 21.22 73.05 20.25L75.34 20.25C75 22.82 72.96 23.84 71.03 23.84ZM106.29 23.84C103.98 23.85 101.64 22.29 101.63 19.2C101.64 16.1 103.98 14.54 106.29 14.54C108.18 14.54 110.22 15.57 110.57 18L108.28 18C107.96 17.08 107.27 16.66 106.29 16.66C104.93 16.66 104.03 17.69 104.03 19.2C104.03 20.53 104.92 21.7 106.29 21.72C107.28 21.72 108.08 21.22 108.32 20.25L110.61 20.25C110.27 22.82 108.23 23.84 106.29 23.84ZM62.17 23.75L62.17 19.27L57.58 23.76L56.75 23.76L56.75 14.65L59.13 14.65L59.13 19.1L63.73 14.61L64.58 14.61L64.58 23.75L62.17 23.75ZM17.17 14.65L24.73 14.65L24.73 23.75L22.35 23.75L22.35 16.79L19.54 16.79L19.54 23.75L17.17 23.75L17.17 14.65ZM46.85 14.65L54.41 14.65L54.41 23.75L52.03 23.75L52.03 16.79L49.23 16.79L49.23 23.75L46.85 23.75L46.85 14.65ZM87.19 23.75L87.19 16.73L84.95 16.73L84.95 14.65L91.71 14.65L91.71 16.73L89.49 16.73L89.49 23.75L87.19 23.75ZM93.15 14.65L95.47 14.65L95.47 17.36L97.15 17.36C101.51 17.36 101.51 23.73 97.15 23.75L93.15 23.75L93.15 14.65ZM111.5 23.75L111.5 23.41L113.28 20.52C110.98 18.96 111.63 14.66 115.2 14.65L119.19 14.65L119.19 23.75L116.86 23.75L116.86 21.07L115.66 21.07L114.1 23.75L111.5 23.75ZM115.2 16.73C113.87 16.74 113.94 18.97 115.2 18.97L116.86 18.97L116.86 16.73C116.68 16.73 116.5 16.72 116.31 16.72C115.94 16.72 115.57 16.72 115.2 16.73ZM33.45 19.21C33.45 15.93 28.89 15.93 28.89 19.21C28.89 22.51 33.45 22.51 33.45 19.21ZM79.54 20.61L81.62 20.61L80.57 18.22L79.54 20.61ZM42.3 21.7L40.98 18.42L39.72 21.7L42.3 21.7ZM97.14 21.67C98.49 21.65 98.41 19.45 97.14 19.45L95.47 19.45L95.47 21.67C95.65 21.67 95.83 21.67 96.01 21.67C96.39 21.67 96.77 21.67 97.14 21.67Z" fill="#FFFFFF" fill-opacity="1.000000" fill-rule="evenodd"/>
</svg>
