<svg width="270.000000" height="84.000000" viewBox="0 0 270 84" fill="none" xmlns="http://www.w3.org/2000/svg" xmlns:xlink="http://www.w3.org/1999/xlink">
	<desc>
			Created with Pixso.
	</desc>
	<defs/>
	<path id="bg" d="M42 0L228 0C251.19 0 270 18.8 270 42C270 65.19 251.19 84 228 84L42 84C18.8 84 0 65.19 0 42C0 18.8 18.8 0 42 0Z" fill="#5222D0" fill-opacity="1.000000" fill-rule="nonzero"/>
	<rect id="ico" rx="0.000000" width="40.724377" height="27.743456" transform="translate(196.937500 28.062500)" fill="#FFFFFF" fill-opacity="0"/>
	<path id="ico" d="M198.438 27.5625L236.162 27.5625C237.266 27.5625 238.162 28.4579 238.162 29.5625L238.162 34.053L196.438 34.053L196.438 39.6162L238.162 39.6162L238.162 54.306C238.162 55.4105 237.266 56.306 236.162 56.306L198.438 56.306C197.333 56.306 196.438 55.4105 196.438 54.306L196.438 29.5625C196.438 28.4579 197.333 27.5625 198.438 27.5625Z" clip-rule="evenodd" fill="#FFFFFF" fill-opacity="1.000000" fill-rule="evenodd"/>
	<path id="Купить" d="M125.46 54.25L125.46 42.21L113.1 54.28L110.86 54.28L110.86 29.75L117.27 29.75L117.27 41.75L129.66 29.64L131.93 29.64L131.93 54.25L125.46 54.25ZM42.52 44.9L42.52 54.25L36.15 54.25L36.15 29.75L42.52 29.75L42.52 39.02L42.97 39.02C48.95 39.02 48.94 34.75 48.92 30.37C48.92 30.16 48.92 29.95 48.92 29.75L55.36 29.75C55.36 29.88 55.36 30.02 55.36 30.15C55.36 35 55.37 39.46 50.64 42.49L57.29 53.27L57.29 54.25L50.32 54.25L44.93 44.76C44.09 44.9 43.32 44.9 42.52 44.9ZM69.15 54.25L62.4 54.25L62.4 53.58L66.25 45.67L57.99 30.69L57.99 29.75L64.99 29.75L69.61 38.78L69.78 38.78L73.98 29.75L80.77 29.75L80.77 30.69L69.15 54.25ZM84.2 29.75L104.57 29.75L104.57 54.25L98.17 54.25L98.17 35.52L90.61 35.52L90.61 54.25L84.2 54.25L84.2 29.75ZM141.81 54.25L141.81 35.34L135.79 35.34L135.79 29.75L153.99 29.75L153.99 35.34L148 35.34L148 54.25L141.81 54.25ZM157.86 29.75L164.12 29.75L164.12 37.06L168.64 37.06C180.36 37.06 180.36 54.21 168.64 54.25L157.86 54.25L157.86 29.75ZM168.6 48.65C172.24 48.61 172.03 42.7 168.6 42.7L164.12 42.7L164.12 48.65C164.6 48.65 165.08 48.65 165.58 48.65C166.58 48.66 167.62 48.67 168.6 48.65Z" fill="#FFFFFF" fill-opacity="1.000000" fill-rule="evenodd"/>
</svg>
