<svg width="115.000000" height="38.000000" viewBox="0 0 115 38" fill="none" xmlns="http://www.w3.org/2000/svg" xmlns:xlink="http://www.w3.org/1999/xlink">
	<desc>
			Created with Pixso.
	</desc>
	<defs/>
	<rect id="bg" rx="19.000000" width="115.000000" height="38.000000" fill="#5222D0" fill-opacity="1.000000"/>
	<circle id="Ellipse 1" cx="94.000000" cy="15.000000" r="4.000000" stroke="#FFFFFF" stroke-opacity="1.000000" stroke-width="2.000000"/>
	<path id="Rectangle 2" d="M87 15L101 15L99 24L89 24L87 15Z" fill="#FFFFFF" fill-opacity="1.000000" fill-rule="nonzero"/>
	<path id="Rectangle 2" d="M99.46 15L87 15L89 24L99 24L100.66 16.5L101 15L99.46 15ZM99.13 16.5L97.79 22.5L90.2 22.5L88.86 16.5L99.13 16.5Z" fill="#FFFFFF" fill-opacity="1.000000" fill-rule="evenodd"/>
	<path id="Корзина" d="M48.44 16.4C47.93 16.4 47.64 16.6 47.64 16.93L45.57 16.93C45.49 15.26 46.86 14.48 48.44 14.48C50.43 14.48 51.43 15.79 51.43 17.12C51.43 17.71 51.17 18.4 50.64 18.81C51.56 19.3 51.95 20.03 51.95 21.05C51.95 22.67 50.78 23.91 48.44 23.91C46.47 23.91 45.26 22.82 45.26 20.78L47.3 20.78C47.3 21.5 47.77 21.95 48.44 21.95C50 21.95 50 19.88 48.44 19.88L47.8 19.88L47.8 17.99L48.42 17.99C49.56 17.99 49.53 16.4 48.44 16.4ZM25.8 19.21C25.8 12.92 35.13 12.92 35.13 19.21C35.13 25.51 25.8 25.51 25.8 19.21ZM81.81 23.75L79.53 23.75L79 22.6L75.41 22.6L74.88 23.75L72.6 23.75L72.6 23.41L76.7 14.53L77.7 14.53L81.81 23.41L81.81 23.75ZM59.11 23.75L59.11 19.27L54.52 23.76L53.69 23.76L53.69 14.65L56.07 14.65L56.07 19.1L60.67 14.61L61.52 14.61L61.52 23.75L59.11 23.75ZM19.53 20.27L19.53 23.75L17.17 23.75L17.17 14.65L19.53 14.65L19.53 18.09L19.7 18.09C21.92 18.09 21.92 16.5 21.91 14.88C21.91 14.8 21.91 14.72 21.91 14.65L24.3 14.65C24.3 14.7 24.3 14.75 24.3 14.8C24.3 16.6 24.3 18.25 22.55 19.38L25.02 23.38L25.02 23.75L22.43 23.75L20.43 20.22C20.12 20.27 19.83 20.27 19.53 20.27ZM39.21 21.42L39.21 23.75L36.88 23.75L36.88 14.65L40.88 14.65C45.24 14.66 45.24 21.42 40.88 21.42L39.21 21.42ZM69.05 14.65L71.42 14.65L71.42 23.75L69.05 23.75L69.05 20.09L66.24 20.09L66.24 23.75L63.86 23.75L63.86 14.65L66.24 14.65L66.24 17.95L69.05 17.95L69.05 14.65ZM39.21 19.33L40.87 19.33C42.15 19.33 42.22 16.74 40.87 16.73C40.51 16.72 40.12 16.72 39.75 16.72C39.56 16.72 39.38 16.73 39.21 16.73L39.21 19.33ZM32.75 19.21C32.75 15.93 28.19 15.93 28.19 19.21C28.19 22.51 32.75 22.51 32.75 19.21ZM76.17 20.61L78.25 20.61L77.19 18.22L76.17 20.61Z" fill="#FFFFFF" fill-opacity="1.000000" fill-rule="evenodd"/>
</svg>
